<svg width="65" height="65" viewBox="0 0 65 65" fill="none" xmlns="http://www.w3.org/2000/svg">
<path d="M21.0344 22.2727H29.2389V30.4545C29.2389 30.5441 29.2565 30.6327 29.2908 30.7155C29.3251 30.7982 29.3753 30.8733 29.4386 30.9367C29.5019 31 29.5771 31.0502 29.6598 31.0844C29.7425 31.1187 29.8312 31.1364 29.9207 31.1364H35.0457C35.1353 31.1364 35.2239 31.1187 35.3066 31.0844C35.3894 31.0502 35.4645 31 35.5278 30.9367C35.5912 30.8733 35.6414 30.7982 35.6756 30.7155C35.7099 30.6327 35.7275 30.5441 35.7275 30.4545V22.2727H43.9321C44.1129 22.2727 44.2863 22.2009 44.4142 22.073C44.5421 21.9452 44.6139 21.7717 44.6139 21.5909V16.4204C44.6139 16.3309 44.5963 16.2422 44.562 16.1595C44.5277 16.0768 44.4775 16.0016 44.4142 15.9383C44.3509 15.875 44.2757 15.8248 44.193 15.7905C44.1103 15.7563 44.0216 15.7386 43.9321 15.7386H35.7275V7.49999C35.7275 7.41046 35.7099 7.3218 35.6756 7.23907C35.6414 7.15635 35.5912 7.08119 35.5278 7.01788C35.4645 6.95456 35.3894 6.90434 35.3066 6.87008C35.2239 6.83581 35.1353 6.81818 35.0457 6.81818H29.9207C29.8312 6.81818 29.7425 6.83581 29.6598 6.87008C29.5771 6.90434 29.5019 6.95456 29.4386 7.01788C29.3753 7.08119 29.3251 7.15635 29.2908 7.23907C29.2565 7.3218 29.2389 7.41046 29.2389 7.49999V15.6932H21.0344C20.8535 15.6932 20.6801 15.765 20.5522 15.8929C20.4244 16.0207 20.3525 16.1942 20.3525 16.375V21.5227C20.343 21.6178 20.3535 21.7139 20.3835 21.8046C20.4134 21.8954 20.4621 21.9788 20.5264 22.0495C20.5907 22.1203 20.6692 22.1767 20.7567 22.2151C20.8442 22.2536 20.9388 22.2732 21.0344 22.2727ZM21.7162 17.125H29.9207C30.1016 17.125 30.275 17.0532 30.4028 16.9253C30.5307 16.7974 30.6025 16.624 30.6025 16.4432V8.22727H34.3639V16.4204C34.3639 16.51 34.3815 16.5986 34.4158 16.6814C34.4501 16.7641 34.5003 16.8393 34.5636 16.9026C34.6269 16.9659 34.7021 17.0161 34.7848 17.0504C34.8675 17.0846 34.9562 17.1023 35.0457 17.1023H43.2503V20.8864H35.0457C34.8649 20.8864 34.6915 20.9582 34.5636 21.0861C34.4357 21.2139 34.3639 21.3873 34.3639 21.5682V29.75H30.6025V21.5682C30.6025 21.3873 30.5307 21.2139 30.4028 21.0861C30.275 20.9582 30.1016 20.8864 29.9207 20.8864H21.7162V17.125Z" fill="#2BA0B2"/>
<path d="M30.2272 49C28.7312 45.4583 26.3902 42.337 23.409 39.9091C22.5416 39.2086 21.8361 38.3286 21.3409 37.3296L19.284 33.1932C19.112 32.843 18.8715 32.5309 18.5768 32.2752C18.282 32.0195 17.9391 31.8255 17.5681 31.7046C17.1976 31.5794 16.806 31.5289 16.4158 31.5562C16.0257 31.5836 15.6449 31.6881 15.2954 31.8637C14.955 32.0408 14.6506 32.2797 14.3977 32.5682L13.6022 21.0568C13.5329 20.2157 13.1425 19.4336 12.5119 18.8727C11.8813 18.3118 11.0589 18.0152 10.2155 18.0444C9.372 18.0736 8.57217 18.4265 7.98192 19.0297C7.39167 19.6329 7.0563 20.4402 7.04541 21.2841V38.9887C7.04608 41.452 7.94273 43.8309 9.56814 45.6818L10.25 46.4659C13.2053 49.8503 15.7777 53.5508 17.9204 57.5C17.9783 57.6097 18.0649 57.7015 18.171 57.7655C18.2771 57.8296 18.3987 57.8635 18.5227 57.8637C18.6092 57.8785 18.6976 57.8785 18.784 57.8637L31.0795 52.7273C31.1642 52.6936 31.2412 52.6429 31.3057 52.5785C31.3701 52.514 31.4208 52.437 31.4545 52.3523C31.4908 52.27 31.5096 52.1809 31.5096 52.0909C31.5096 52.0009 31.4908 51.9119 31.4545 51.8296L30.2272 49ZM18.8636 56.3637C16.7249 52.5079 14.1843 48.8893 11.284 45.5682L10.5909 44.7841C9.18237 43.1823 8.4066 41.1217 8.40905 38.9887V21.2841C8.46731 20.8341 8.68301 20.4193 9.01792 20.1132C9.35282 19.8071 9.7853 19.6294 10.2387 19.6117C10.6921 19.594 11.1371 19.7374 11.4948 20.0165C11.8526 20.2956 12.1 20.6923 12.1931 21.1364L13 32.875C13.0364 33.3176 13.132 33.7533 13.284 34.1705L16.9772 43.8637C17.0079 43.9491 17.0553 44.0276 17.1167 44.0945C17.1781 44.1614 17.2523 44.2153 17.3348 44.2532C17.4174 44.291 17.5067 44.312 17.5974 44.3149C17.6882 44.3177 17.7786 44.3024 17.8634 44.2699C17.9481 44.2374 18.0255 44.1882 18.0911 44.1253C18.1566 44.0625 18.2089 43.9871 18.2449 43.9038C18.2809 43.8204 18.2999 43.7307 18.3008 43.6399C18.3016 43.5491 18.2844 43.4591 18.25 43.375L15.1022 35.1478C14.9585 34.7781 14.9581 34.368 15.1011 33.998C15.244 33.628 15.52 33.3248 15.875 33.1478C16.0616 33.0475 16.2668 32.9867 16.478 32.9691C16.6891 32.9515 16.9016 32.9775 17.1022 33.0455C17.3038 33.1137 17.4899 33.2211 17.6499 33.3615C17.8098 33.5019 17.9404 33.6726 18.034 33.8637L20.0795 37.9887C20.6633 39.1626 21.4926 40.1973 22.5113 41.0228C25.3312 43.2949 27.5545 46.2202 28.9886 49.5455L29.9204 51.7387L18.8636 56.3637Z" fill="#2BA0B2"/>
<path d="M54.5683 18C53.7372 18.0009 52.9374 18.3168 52.3301 18.8841C51.7228 19.4514 51.3531 20.2278 51.2956 21.0568L50.5001 32.5682C50.2406 32.2821 49.9329 32.0436 49.591 31.8637C48.8845 31.5114 48.067 31.4542 47.3183 31.7046C46.945 31.8236 46.5995 32.0168 46.3027 32.2726C46.0059 32.5284 45.7638 32.8415 45.591 33.1932L43.5456 37.3296C43.0474 38.3266 42.3423 39.206 41.4774 39.9091C38.5002 42.3408 36.16 45.461 34.6592 49L33.3978 51.8182C33.3615 51.9006 33.3428 51.9896 33.3428 52.0796C33.3428 52.1696 33.3615 52.2586 33.3978 52.3409C33.4297 52.4249 33.4784 52.5015 33.5409 52.566C33.6035 52.6305 33.6785 52.6815 33.7615 52.7159L46.0683 57.8523C46.2227 57.9198 46.397 57.9256 46.5555 57.8685C46.714 57.8114 46.8446 57.6959 46.9206 57.5455C49.0759 53.5789 51.6636 49.8631 54.6365 46.4659L55.3297 45.6818C56.9519 43.8298 57.8445 41.4507 57.841 38.9887V21.2841C57.8425 20.8534 57.759 20.4266 57.5952 20.0282C57.4314 19.6298 57.1905 19.2677 56.8865 18.9626C56.5824 18.6575 56.2212 18.4154 55.8233 18.2502C55.4255 18.0851 54.999 18 54.5683 18ZM56.4774 38.9887C56.4778 41.1192 55.7068 43.1779 54.3069 44.7841L53.6138 45.5682C50.7102 48.8892 48.1657 52.5078 46.0228 56.3637L34.9206 51.7273L35.9092 49.5455C37.337 46.2038 39.5607 43.2622 42.3865 40.9773C43.4052 40.1519 44.2345 39.1172 44.8183 37.9432L46.8751 33.8182C46.9688 33.6271 47.0994 33.4565 47.2593 33.316C47.4192 33.1756 47.6053 33.0682 47.8069 33C48.0076 32.932 48.2201 32.906 48.4312 32.9236C48.6423 32.9412 48.8476 33.002 49.0342 33.1023C49.3838 33.2789 49.656 33.5784 49.7986 33.9432C49.9412 34.308 49.9442 34.7127 49.8069 35.0796L46.591 43.3182C46.5279 43.4886 46.5342 43.6769 46.6086 43.8427C46.683 44.0085 46.8195 44.1384 46.9888 44.2046C47.1576 44.2673 47.3443 44.2606 47.5083 44.1861C47.6722 44.1116 47.8 43.9753 47.8638 43.8068L51.0228 35.5796C51.3349 34.6964 51.6004 33.7974 51.8183 32.8864L52.6478 21.1364C52.6983 20.6523 52.9306 20.2055 53.2979 19.8862C53.6651 19.5668 54.1399 19.3989 54.6263 19.4162C55.1127 19.4335 55.5743 19.6348 55.9179 19.9795C56.2615 20.3241 56.4615 20.7863 56.4774 21.2728V38.9887Z" fill="#2BA0B2"/>
<path d="M32.5 65C26.0721 65 19.7886 63.0939 14.444 59.5228C9.09938 55.9516 4.93378 50.8758 2.47393 44.9372C0.0140816 38.9986 -0.629526 32.464 0.624493 26.1596C1.87851 19.8552 4.97384 14.0642 9.51904 9.51904C14.0642 4.97384 19.8552 1.87851 26.1596 0.624493C32.464 -0.629526 38.9986 0.0140816 44.9372 2.47393C50.8758 4.93378 55.9516 9.09938 59.5228 14.444C63.0939 19.7886 65 26.0721 65 32.5C64.991 41.1168 61.564 49.378 55.471 55.471C49.378 61.564 41.1168 64.991 32.5 65ZM32.5 1.36365C26.3418 1.36365 20.3219 3.18977 15.2016 6.61107C10.0812 10.0324 6.0904 14.8952 3.73376 20.5846C1.37713 26.2741 0.760524 32.5345 1.96193 38.5744C3.16333 44.6143 6.12878 50.1622 10.4833 54.5167C14.8378 58.8712 20.3857 61.8367 26.4256 63.0381C32.4655 64.2395 38.726 63.6229 44.4154 61.2663C50.1048 58.9096 54.9676 54.9188 58.3889 49.7984C61.8103 44.6781 63.6364 38.6582 63.6364 32.5C63.6273 24.2449 60.344 16.3305 54.5068 10.4932C48.6695 4.656 40.7551 1.37267 32.5 1.36365Z" fill="#2BA0B2"/>
</svg>
