<svg width="45" height="44" viewBox="0 0 45 44" fill="none" xmlns="http://www.w3.org/2000/svg">
<g clip-path="url(#clip0_502_1227)">
<path fill-rule="evenodd" clip-rule="evenodd" d="M0 22C0 34.1502 10.0736 44 22.5 44C34.9264 44 45 34.1502 45 22C45 9.84977 34.9264 0 22.5 0C10.0736 0 0 9.84977 0 22ZM18.375 32.0833L18.7578 26.4754L29.1908 17.2691C29.6487 16.8717 29.0909 16.6779 28.483 17.0384L15.6068 24.9813L10.045 23.284C8.84391 22.9244 8.83528 22.1173 10.3147 21.5372L31.9878 13.3658C32.9777 12.9264 33.9331 13.5983 33.5552 15.0796L29.8643 32.0862C29.6065 33.2947 28.8597 33.5837 27.825 33.0255L22.2025 28.9638L19.5 31.5333C19.4915 31.5414 19.483 31.5495 19.4746 31.5575C19.1723 31.8453 18.9222 32.0833 18.375 32.0833Z" fill="#1DD3C7"/>
</g>
<defs>
<clipPath id="clip0_502_1227">
<rect width="45" height="44" fill="white"/>
</clipPath>
</defs>
</svg>
