<svg width="45" height="45" viewBox="0 0 45 45" fill="none" xmlns="http://www.w3.org/2000/svg">
<g clip-path="url(#clip0_502_1224)">
<path fill-rule="evenodd" clip-rule="evenodd" d="M0 22.5C0 34.9263 10.0736 45 22.5 45C34.9264 45 45 34.9263 45 22.5C45 10.0736 34.9264 -3.05176e-05 22.5 -3.05176e-05C10.0736 -3.05176e-05 0 10.0736 0 22.5ZM36.6207 21.6389C36.6178 29.014 30.6183 35.0149 23.2417 35.0179H23.2361C20.9969 35.0172 18.7967 34.4553 16.8425 33.3895L9.75 35.25L11.6481 28.317C10.4772 26.2879 9.86119 23.9864 9.86213 21.6283C9.86512 14.2516 15.867 8.24997 23.2415 8.24997C26.8206 8.25152 30.1798 9.64488 32.7058 12.1738C35.2318 14.7026 36.6222 18.064 36.6207 21.6389Z" fill="#1DD3C7"/>
<path fill-rule="evenodd" clip-rule="evenodd" d="M12.9623 32.0715L17.1711 30.9674L17.5772 31.2084C19.2845 32.2215 21.2417 32.7576 23.2371 32.7585H23.2416C29.3708 32.7585 34.3593 27.7698 34.3618 21.6381C34.3629 18.6667 33.2073 15.8729 31.1078 13.7709C29.0083 11.6689 26.2162 10.5107 23.246 10.5097C17.1121 10.5097 12.1235 15.4979 12.1211 21.6291C12.1203 23.7303 12.7082 25.7766 13.8213 27.5471L14.0857 27.9678L12.9623 32.0715ZM29.5241 24.5194C29.7573 24.6321 29.9148 24.7081 29.982 24.8204C30.0655 24.9598 30.0655 25.6291 29.7871 26.4102C29.5083 27.191 28.1729 27.9037 27.5305 27.9996C26.9546 28.0858 26.2258 28.1217 25.425 27.8671C24.9393 27.7131 24.3168 27.5074 23.5191 27.163C20.3852 25.8097 18.2672 22.7722 17.8669 22.1981C17.8389 22.1579 17.8192 22.1297 17.8083 22.1152L17.8056 22.1115C17.6287 21.8755 16.4433 20.2938 16.4433 18.657C16.4433 17.1171 17.1997 16.3099 17.5479 15.9384C17.5717 15.913 17.5937 15.8895 17.6133 15.8681C17.9197 15.5334 18.282 15.4498 18.5048 15.4498C18.7277 15.4498 18.9507 15.4518 19.1455 15.4616C19.1695 15.4628 19.1945 15.4626 19.2204 15.4625C19.4152 15.4613 19.658 15.4599 19.8977 16.0354C19.9898 16.257 20.1247 16.5853 20.2669 16.9315C20.5546 17.6319 20.8725 18.4057 20.9283 18.5176C21.012 18.685 21.0677 18.8802 20.9562 19.1034C20.9395 19.1369 20.924 19.1685 20.9092 19.1985C20.8256 19.3695 20.764 19.4952 20.622 19.661C20.5661 19.7263 20.5083 19.7966 20.4506 19.8668C20.3357 20.0069 20.2206 20.1469 20.1205 20.2467C19.9532 20.4134 19.7789 20.5943 19.9739 20.929C20.1689 21.2637 20.8398 22.3583 21.8337 23.2448C22.902 24.1977 23.8305 24.6004 24.3011 24.8046C24.393 24.8445 24.4674 24.8767 24.5221 24.9041C24.8562 25.0714 25.0513 25.0435 25.2463 24.8204C25.4413 24.5973 26.082 23.8442 26.3048 23.5095C26.5276 23.175 26.7506 23.2307 27.057 23.3423C27.3634 23.454 29.007 24.2625 29.3413 24.4299C29.4065 24.4626 29.4676 24.492 29.5241 24.5194Z" fill="#1DD3C7"/>
</g>
<defs>
<clipPath id="clip0_502_1224">
<rect width="45" height="45" fill="white"/>
</clipPath>
</defs>
</svg>
